<svg xmlns="http://www.w3.org/2000/svg" viewBox="0 0 500 500"><title>jupiter-fixed</title><path d="M250,0A249.61,249.61,0,0,0,38.3,117H461.7A249.78,249.78,0,0,0,250,0Z" style="fill:#d8d8d8"/><path d="M57.45,409.42h385.2a244.25,244.25,0,0,0,21.79-30.8H35.56A252.47,252.47,0,0,0,57.45,409.42Z" style="fill:#ed7c00"/><path d="M250,500a248.48,248.48,0,0,0,127.46-34.95H122.49A249,249,0,0,0,250,500Z" style="fill:#dbdbdb"/><path d="M.91,271a249.5,249.5,0,0,0,21.28,82.07H477.71A245.92,245.92,0,0,0,499,271Z" style="fill:#cfcfcf"/><path d="M485.92,167.17A246.18,246.18,0,0,0,461.7,117H38.3a246.18,246.18,0,0,0-24.22,50.15Z" style="fill:#ed7c00"/><path d="M35.56,378.62H464.34a243.42,243.42,0,0,0,13.37-25.43H22.19C26.24,361.9,30.7,370.42,35.56,378.62Z" style="fill:#7dd4c4"/><path d="M122.49,465.05H377.41a251.1,251.1,0,0,0,65.14-55.73H57.45A248.6,248.6,0,0,0,122.49,465.05Z" style="fill:#ffe9c7"/><path d="M500,249.85a253.56,253.56,0,0,0-13.78-82.68H13.78A253.56,253.56,0,0,0,0,249.85C0,256.94.3,264,.91,271H499.09C499.7,264,500,257,500,249.85Z" style="fill:#fdfde2"/><g style="opacity:0.230000004172325"><path d="M442,90.07C482.57,139.41,439.68,260.75,334,349S100,459,58.76,410.23A248.25,248.25,0,0,0,250.05,500c137.69,0,249.34-112,249.34-250.15A248.65,248.65,0,0,0,442,90.07Z" style="fill:#7a7a7a"/><path d="M441.84,89.87a1.31,1.31,0,0,1-.3-.41c.2.21.3.41.51.61C442,90,441.84,90,441.84,89.87Z" style="fill:#7a7a7a"/><path d="M58.46,409.83a1.38,1.38,0,0,1,.3.4c-.2-.2-.3-.4-.5-.6A.22.22,0,0,1,58.46,409.83Z" style="fill:#7a7a7a"/></g></svg>