<svg xmlns="http://www.w3.org/2000/svg" viewBox="0 0 500 500"><title>moon-fixed</title><circle cx="250" cy="250" r="250" style="fill:#aaa"/><path d="M472.9,363.5a45.94,45.94,0,0,0-5.2,10.4C469.8,370.8,470.8,366.7,472.9,363.5Z" transform="translate(0 0)" style="fill:#aaa"/><path d="M466.7,376c-2.1,3.1-4.2,7.3-6.2,10.4A89.3,89.3,0,0,1,466.7,376Z" transform="translate(0 0)" style="fill:#aaa"/><path d="M479.2,351c-2.1,4.2-3.1,7.3-5.2,11.5C476,358.3,477.1,354.2,479.2,351Z" transform="translate(0 0)" style="fill:#aaa"/><ellipse cx="331.2" cy="141.7" rx="52.1" ry="42.7" style="fill:#7a7a7a"/><ellipse cx="289.6" cy="269.8" rx="45.8" ry="38.5" style="fill:#7a7a7a"/><path d="M168.8,39.6c4.2,20.8,28.1,33.3,53.1,27.1s41.7-26,37.5-46.9A33.23,33.23,0,0,0,245.9,0a222.5,222.5,0,0,0-69.8,11.5C168.8,19.8,166.7,29.2,168.8,39.6Z" transform="translate(0 0)" style="fill:#7a7a7a"/><ellipse cx="137.5" cy="325" rx="25" ry="28.1" style="fill:#7a7a7a"/><path d="M166.7,408.3a29.21,29.21,0,1,0,18.7,52.2c1-4.2,4.2-7.3,7.3-9.4,2.1-4.2,4.2-9.4,4.2-14.6C196.9,421.9,183.3,408.3,166.7,408.3Zm-3.2,11.5c1-4.2,4.2-7.3,7.3-9.4C168.8,414.6,166.7,417.7,163.5,419.8Z" transform="translate(0 0)" style="fill:#7a7a7a"/><path d="M163.5,419.8c3.1-2.1,5.2-5.2,7.3-9.4C167.7,413.5,164.6,415.6,163.5,419.8Z" transform="translate(0 0)" style="fill:#7a7a7a"/><path d="M328.1,402.1c-15.6,0-28.1-13.5-32.3-33.3-18.8,0-34.4,17.7-34.4,38.5,0,21.9,15.6,38.5,34.4,38.5s34.4-17.7,34.4-38.5v-6.2C330.2,402.1,329.2,402.1,328.1,402.1Z" transform="translate(0 0)" style="fill:#7a7a7a"/><path d="M461.5,115.6Z" transform="translate(0 0)" style="fill:#7a7a7a"/><path d="M434.4,164.6c0,27.1,14.6,49,33.3,49,10.4,0,20.8-8.3,26-19.8-6.2-28.1-17.7-54.2-32.3-78.1h0C445.8,119.8,434.4,140.6,434.4,164.6Z" transform="translate(0 0)" style="fill:#7a7a7a"/><path d="M474,362.5a1,1,0,0,1-1,1Z" transform="translate(0 0)" style="fill:#7a7a7a"/><path d="M467.7,374l-1,1Z" transform="translate(0 0)" style="fill:#7a7a7a"/><path d="M479.2,350Z" transform="translate(0 0)" style="fill:#7a7a7a"/><path d="M460.4,385.4a1,1,0,0,1-1,1C459.4,386.5,460.4,386.5,460.4,385.4Z" transform="translate(0 0)" style="fill:#7a7a7a"/><path d="M475,289.6c-22.9,0-40.6,27.1-40.6,59.4,0,20.8,7.3,38.5,17.7,49,2.1-3.1,5.2-7.3,7.3-10.4a1,1,0,0,1,1-1,75.17,75.17,0,0,0,6.2-10.4l1-1a45.94,45.94,0,0,0,5.2-10.4,1,1,0,0,1,1-1c2.1-4.2,4.2-7.3,5.2-11.5h0c7.3-16.7,12.5-34.4,16.7-53.1C489.6,291.7,482.3,289.6,475,289.6Z" transform="translate(0 0)" style="fill:#7a7a7a"/><circle cx="69.9" cy="222.7" r="27.1" transform="translate(-77.38 41.62) rotate(-21.7)" style="fill:#7a7a7a"/><circle cx="166.7" cy="144.8" r="40.6" style="fill:#7a7a7a"/><g style="opacity:0.23000000417232513"><path d="M442.7,90.6c40.6,49-12.5,160.4-117.7,249C218.8,427.1,99,459.4,58.3,410.4A247.89,247.89,0,0,0,250,500c138.5,0,250-112.5,250-250A250.62,250.62,0,0,0,442.7,90.6Z" transform="translate(0 0)" style="fill:#7a7a7a"/><path d="M442.7,90.6Z" transform="translate(0 0)" style="fill:#7a7a7a"/><path d="M58.3,410.4Z" transform="translate(0 0)" style="fill:#7a7a7a"/></g></svg>